<?xml version="1.0" standalone="no"?>
<!DOCTYPE svg PUBLIC "-//W3C//DTD SVG 1.1//EN" "http://www.w3.org/Graphics/SVG/1.1/DTD/svg11.dtd">
<svg xmlns="http://www.w3.org/2000/svg">
<metadata>Generated by Fontastic.me</metadata>
<defs>
<font id="zenforms" horiz-adv-x="512">
<font-face font-family="zenforms" units-per-em="512" ascent="480" descent="-32"/>
<missing-glyph horiz-adv-x="512" />

<glyph unicode="&#99;" d="M512 384c0-5-2-9-5-12l-239-256c-3-4-7-5-11-5-5 0-9 1-12 5l-239 255c-8 8-8 16 0 24 8 8 16 8 24 0l227-241 226 241c8 8 16 8 24 0 3-2 5-6 5-11z"/>
<glyph unicode="&#100;" d="M384 0c-5 0-9 2-12 5l-256 239c-4 3-5 7-5 11 0 5 1 9 5 12l255 239c8 8 16 8 24 0 8-8 8-16 0-24l-241-227 241-226c8-8 8-16 0-24-2-3-6-5-11-5z"/>
<glyph unicode="&#101;" d="M128 512c5 0 9-2 12-5l256-239c3-3 5-7 5-11 0-5-2-9-5-12l-255-239c-8-8-16-8-24 0-8 8-8 16 0 24l241 227-241 226c-8 8-8 16 0 24 2 3 6 5 11 5z"/>
<glyph unicode="&#102;" d="M0 128c0 5 2 9 5 12l239 256c3 3 7 5 11 5 5 0 9-2 12-5l239-256c8-8 8-16 0-24-8-8-16-8-24 0l-227 242-226-241c-8-8-16-8-24 0-3 2-5 6-5 11z"/>
<glyph unicode="&#97;" d="M205 175c-2 0-7 0-9 2l-51 51c-4 5-4 11 0 15 4 4 11 4 15 0l43-42 145 136c4 4 10 4 15 0 4-4 4-11 0-15l-154-143c2-4-2-4-4-4z m51-164c-134 0-245 111-245 245 0 134 111 245 245 245 134 0 245-111 245-245 0-134-111-245-245-245z m0 469c-124 0-224-100-224-224 0-124 100-224 224-224 124 0 224 100 224 224 0 124-100 224-224 224z"/>
<glyph unicode="&#98;" d="M489 465l-318-437c-2-5-7-7-11-7l-2 0c-4 0-7 2-11 5l-121 121c-9 7-9 13 0 22 6 6 15 6 21 0l109-107 307 422c2 2 6 5 11 7 4 2 8 0 10-2 9-7 9-15 5-24z"/>
<glyph unicode="&#103;" d="M256 11c-134 0-245 111-245 245 0 134 111 245 245 245 134 0 245-111 245-245 0-134-111-245-245-245z m0 469c-124 0-224-100-224-224 0-124 100-224 224-224 124 0 224 100 224 224 0 124-100 224-224 224z m113-348c-2 0-4 0-6 2l-120 113c-2 3-4 5-4 9l0 113c0 6 4 11 11 11 6 0 10-5 10-11l0-107 118-108c4-5 4-11 0-15-5-5-7-7-9-7z"/>
<glyph unicode="&#104;" d="M412 11l-391 0c-6 0-10 4-10 10l0 423c0 6 4 10 10 10l329 0c6 0 11-4 11-10 0-7-5-11-11-11l-318 0 0-401 369 0 0 245c0 7 4 11 11 11 6 0 10-4 10-11l0-256c0-6-4-10-10-10z m-179 211c-3 0-7 2-9 2-2 2-4 9-2 13l23 57c0 3 2 3 2 5l195 194c17 17 44 6 53-15 4-13 2-24-6-34l-195-194c0 0-2-3-4-3l-57-23c2-2 2-2 0-2z m34 62l-13-30 30 13 194 194c0 0 4 4 2 10-4 9-13 13-19 7z m194 134c-2 0-7 0-9 2l-32 32c-4 5-4 11 0 15 5 4 11 4 15 0l32-32c4-4 4-10 0-15-2-2-4-2-6-2z"/>
<glyph unicode="&#105;" d="M448 62l-384 0c-15 0-28 4-36 15-11 10-15 23-15 36l0 237 19-21c6-9 15-15 23-22 64-42 107-72 131-89 10-7 17-13 23-17 6-5 13-9 24-11 19-9 32-7 49 0 10 4 17 8 23 11 6 4 15 10 24 17 29 21 74 51 130 89 8 7 17 13 23 22l19 21 0-237c0-15-4-28-15-36-10-11-23-15-38-15z m-416 235l0-184c0-8 2-15 9-21 6-7 12-9 21-9l386 0c9 0 15 2 21 9 7 6 9 13 9 21l0 184c-2-3-7-5-9-7-57-38-100-68-130-89-10-7-19-13-25-18-7-4-15-8-26-12-23-11-45-9-66 0-11 4-19 8-26 12-6 3-15 9-25 18-22 17-64 44-128 89-5 2-9 4-11 7z m224-103c-6 0-11 0-17 2-6 2-11 5-17 9-7 4-11 6-15 8-4 2-9 7-15 11l-11 9c-15 10-38 27-68 46-30 22-47 35-53 39-11 8-22 19-32 32-11 15-17 30-17 43 0 17 4 29 12 40 11 13 24 17 41 17l384 0c15 0 26-4 36-15 11-10 15-23 15-36 0-15-4-32-15-45-8-13-21-25-34-34l-134-94c-7-4-11-8-15-11-4-2-9-6-15-8-7-4-11-6-17-9-2-2-7-4-13-4z m-192 235c-11 0-19-2-23-9-7-6-9-17-9-27 0-9 4-20 13-30 8-13 19-22 28-28 6-4 23-17 53-36 30-22 53-37 68-47l11-9c6-4 10-6 13-10 4-3 8-5 12-9 5-2 9-4 13-6 4-3 7-3 11-3 2 0 6 0 11 3 4 2 8 4 12 6 5 2 9 6 13 9 4 2 9 6 13 10l11 9 121 85c11 9 22 17 30 30 6 11 11 21 11 34 0 9-2 15-9 21-6 7-13 9-21 9l-382 0z"/>
<glyph unicode="&#106;" d="M467 15l-422 0c-24 0-45 21-45 45l0 239c0 23 21 44 45 44l424 0c24 0 45-21 45-44l0-239c-2-24-21-45-47-45z m-422 307c-13 0-24-11-24-23l0-239c0-13 11-24 24-24l424 0c11 0 24 11 24 24l0 239c0 12-11 23-24 23z m388-136l-85 0c-7 0-11 4-11 10l0 86c0 6 4 10 11 10l85 0c6 0 11-4 11-10l0-86c0-6-5-10-11-10z m-72 21l64 0 0 64-64 0z m-222 47l-43 0c-6 0-11 4-11 11 0 6 5 10 11 10l43 0c6 0 10-4 10-10 0-7-4-11-10-11z m149-137l-192 0c-6 0-11 5-11 11 0 6 5 11 11 11l192 0c6 0 11-5 11-11 0-6-5-11-11-11z m64-51l-256 0c-6 0-11 4-11 11 0 6 5 10 11 10l256 0c6 0 11-4 11-10 0-7-5-11-11-11z m107 307l-406 0c-6 0-10 5-10 11 0 6 4 11 10 11l406 0c6 0 10-5 10-11 0-6-4-11-10-11z m-43 52l-320 0c-6 0-11 4-11 10 0 7 5 11 11 11l320 0c6 0 11-4 11-11 0-6-5-10-11-10z m-43 51l-234 0c-7 0-11 4-11 10 0 7 4 11 11 11l234 0c7 0 11-4 11-11 0-6-4-10-11-10z"/>
<glyph unicode="&#107;" d="M252 11c-133 0-239 106-241 241-2 66 23 128 70 175 47 47 109 72 175 74l4 0c133 0 239-106 241-241 2-66-23-128-70-175-47-47-109-74-175-74z m8 469l-4 0c-60 0-117-26-160-68-43-43-66-101-64-160 2-124 98-220 220-220l4 0c60 0 117 26 160 68 43 43 66 101 64 160-2 124-98 220-220 220z m-4-267c-6 0-11 5-11 11l0 149c0 7 5 11 11 11 6 0 11-4 11-11l0-149c0-6-5-11-11-11z m0-42c-13 0-21-11-21-22 0-10 10-21 21-21 13 0 21 11 21 21 0 13-10 22-21 22z"/>
<glyph unicode="&#108;" d="M403 11l-68 0 0 207 64 0 6 47-70 0 0 55c0 13 4 26 11 32 8 9 19 13 36 13l30 0 0 42c-15 3-30 3-45 3-26 0-45-7-60-22-15-15-21-34-21-62l0-61-68 0 0-47 68 0 0-207-177 0c-28 0-51 10-71 30-19 19-29 42-29 70l0 292c0 28 10 51 29 71 20 19 43 29 71 29l294 0c28 0 51-10 71-29 19-20 29-43 29-71l0-294c0-28-10-51-29-71-22-17-45-27-71-27z m-49 21l47 0c21 0 38 6 56 23 14 15 23 35 23 56l0 292c0 22-6 39-23 56-15 15-35 23-56 23l-292 0c-22 0-39-6-56-23-15-17-21-34-21-56l0-294c0-22 6-39 23-56 15-15 35-23 56-23l156 0 0 164-71 0 0 90 69 0 0 42c0 32 8 58 27 77 19 19 43 28 75 28 17 0 36 0 55-2l11 0 0-83-51 0c-11 0-19-3-21-7-5-4-7-10-7-17l0-32 73 0-13-89-60 0z"/>
<glyph unicode="&#109;" d="M486 275c3-2 5-6 5-10 0-11-5-15-15-15l-205 0 0-212c0-10-4-15-15-15-11 0-15 5-15 15l0 214-205 0c-10 0-15 4-15 15 0 10 5 15 15 15l203 0 0 192c0 10 4 15 15 15 11 0 15-5 15-15l0-195 205 0c6 0 10 0 12-4z"/>
<glyph unicode="&#110;" d="M486 26c-4-3-8-5-10-5-5 0-9 2-11 5l-168 168c-32-25-67-38-107-38-47 0-85 17-120 49-34 32-49 72-49 117 0 47 17 85 49 120 32 32 73 49 118 49 45 0 83-17 117-49 32-32 49-73 49-118 0-38-13-74-38-106l168-171c9-6 9-13 2-21z m-202 202c25 26 40 58 40 94 0 39-13 71-40 96-26 26-58 41-96 41-39 0-71-13-96-39-26-25-41-57-41-96 0-36 13-68 41-96 27-27 59-40 96-40 38 2 70 15 96 40z"/>
<glyph unicode="&#111;" d="M461 11l-410 0c-23 0-40 19-40 40l0 214c0 4 2 6 4 8l81 56c4 4 11 2 15-3 4-4 2-10-2-15l-77-51 0-209c0-10 9-19 19-19l408 0c10 0 19 9 19 19l0 209-77 51c-4 5-6 11-2 15 4 5 11 7 15 3l81-56c2-2 4-4 4-8l0-214c2-21-17-40-38-40z m-28 57c-2 0-4 0-6 2l-103 88-136 0-103-88c-4-4-10-4-15 3-4 4-4 10 3 14l104 90c2 2 4 2 6 2l146 0c2 0 4 0 6-2l104-90c5-4 5-10 3-14-3-5-5-5-9-5z m-64 107c-4 0-6 2-8 4-5 4-3 11 2 15l121 81c5 4 11 2 15-2 4-4 2-11-2-15l-122-81c-2-2-4-2-6-2z m-226 0c-2 0-4 0-6 2l-122 81c-4 4-6 11-2 15 2 4 8 4 15 2l121-81c5-4 7-11 2-15 0-4-4-4-8-4z m267 26c-7 0-11 4-11 10l0 269-286 0 0-269c0-6-4-10-11-10-6 0-10 4-10 10l0 280c0 6 4 10 10 10l308 0c6 0 10-4 10-10l0-280c0-4-4-10-10-10z m-203 215l-41 0c-4 0-10 4-10 11 0 6 4 10 10 10l41 0c6 0 11-4 11-10 0-7-5-11-11-11z m139-49l-139 0c-6 0-11 4-11 11 0 6 5 10 11 10l136 0c7 0 11-4 11-10 0-7-4-11-8-11z m0-64l-180 0c-6 0-10 4-10 11 0 6 4 10 10 10l177 0c7 0 11-4 11-10 0-7-4-11-8-11z m0-66l-180 0c-6 0-10 4-10 10 0 7 4 11 10 11l177 0c7 0 11-4 11-11 0-6-4-10-8-10z"/>
<glyph unicode="&#112;" d="M388 141l-245 0c-11 0-21 4-26 13-6 8-6 21-2 32l58 143c4 12 17 42 51 42l243 0c17 0 26-8 30-15 6-10 6-23 2-38l-57-143c-9-19-32-34-54-34z m-164 209c-17 0-26-11-32-30l-58-143c-2-4-2-11 0-13 3-2 7-4 9-4l245 0c13 0 28 11 32 23l58 143c2 7 2 13 0 17-2 3-7 5-13 5l-241 0z m75-128c-2 0-7 2-9 4l-79 81c-4 4-4 11 0 15 4 4 11 4 15 0l75-75 136 77c5 2 11 2 15-4 2-4 2-11-4-15l-145-81c-2-2-2-2-4-2z m-133-49c-4 0-6 2-8 4-4 4-2 11 2 15l64 49c4 4 11 2 15-2 4-4 2-11-2-15l-64-49c-2-2-4-2-7-2z m227 0c-5 0-7 2-9 4l-32 49c-4 4-2 11 2 15 4 4 11 2 15-2l32-49c4-4 2-11-2-15-2-2-4-2-6-2z m-267 177l-105 0c-6 0-10 4-10 11 0 6 4 10 10 10l105 0c6 0 11-4 11-10 0-7-5-11-11-11z m-64-194l-41 0c-6 0-10 4-10 10 0 7 4 11 10 11l41 0c6 0 11-4 11-11 0-6-5-10-11-10z m21 98l-62 0c-6 0-10 4-10 11 0 6 4 10 10 10l62 0c7 0 11-4 11-10 0-7-7-11-11-11z"/>
<glyph unicode="&#113;" d="M427 11l-342 0c-6 0-10 4-10 10l0 406c0 6 4 10 10 10l342 0c6 0 10-4 10-10l0-406c0-6-6-10-10-10z m-331 21l318 0 0 384-318 0z m250 384l-180 0c-4 0-10 4-10 11l0 64c0 6 4 10 10 10l177 0c7 0 11-4 11-10l0-64c2-7-4-11-8-11z m-169 21l156 0 0 43-156 0z m314-21l-470 0c-6 0-10 4-10 11 0 6 4 10 10 10l470 0c6 0 10-4 10-10 0-7-4-11-10-11z m-325-316c-6 0-10 5-10 11l0 226c0 6 4 11 10 11 7 0 11-5 11-11l0-226c0-6-4-11-11-11z m90 0c-6 0-11 5-11 11l0 226c0 6 5 11 11 11 6 0 11-5 11-11l0-226c0-6-5-11-11-11z m90 0c-7 0-11 5-11 11l0 226c0 6 4 11 11 11 6 0 10-5 10-11l0-226c0-6-6-11-10-11z"/>
<glyph unicode="&#114;" d="M403 11l-294 0c-28 0-51 10-71 30-19 19-29 42-29 70l0 292c0 28 10 51 29 71 20 19 43 29 71 29l294 0c28 0 51-10 71-29 19-20 29-43 29-71l0-294c0-28-10-51-29-71-20-19-45-27-71-27z m-294 469c-22 0-39-6-56-23-15-15-21-32-21-54l0-294c0-22 6-39 23-56 15-15 35-23 56-23l294 0c22 0 39 6 56 23 17 17 23 34 23 56l0 294c0 22-6 39-23 56-15 15-34 23-56 23l-296 0z m89-371c-36 0-72 10-104 30l-41 25 47-6c5 0 9 0 15 0 19 0 36 4 51 13-6 2-10 6-15 8-12 9-21 22-25 36l-7 18c0 0-2 2-2 4-12 13-17 30-17 47l0 17 11-4c-4 10-6 21-6 34 0 12 4 25 10 38l9 13 10-13c15-19 35-34 56-45 17-8 36-15 57-17 0 0 0 2 0 2 0 22 7 39 22 54 15 15 32 21 53 21 19 0 36-6 51-19 11 2 22 6 32 13l24 15-9-26c-2-4-2-9-4-13l32 15-19-30c-9-13-19-23-30-32 0 0 0-2 0-2 0-17-2-36-9-55-4-20-12-37-23-54-11-17-24-32-38-45-15-12-35-23-56-32-21-8-51-10-75-10z m-55 30c38-13 81-11 115 0 19 6 34 15 49 27 13 11 26 26 34 41 11 15 17 30 22 47 4 17 6 32 6 49 0 2 0 6 0 6l0 7 4 4c2 2 5 2 7 4 0 0-2 0-2 0l-54-6 45 23c2 0 2 2 4 2-2 0-6-2-8-2l-7 0-4 5c-8 10-21 17-38 17-15 0-28-5-39-15-10-11-15-24-15-39 0-4 0-8 3-12l4-15-15 0c-28 2-53 8-79 21-19 11-36 23-51 38 0-4-2-8-2-12 0-20 8-35 23-45l30-22-36 0c-7 0-11 0-17 3 2-5 6-9 10-15 9-11 19-17 32-20l45-8-43-13c-4-2-8-2-12-2 2-4 6-9 10-11 9-6 19-10 30-10l30 0-23-20c-18-15-37-23-58-27z"/>
<glyph unicode="&#115;" d="M98 162c-11 0-43 2-66 24-15 15-23 34-23 59 2 28 12 54 34 71 17 15 38 21 62 19 8 75 74 134 151 134 58 0 109-32 137-83 27 0 55-11 74-32 22-21 34-51 34-81 0-100-100-109-102-109l-32 0c-6 0-11 5-11 11 0 6 5 11 11 11l32 0c2 0 81 8 81 87 0 26-11 49-28 66-17 17-42 26-66 26l-6 0-2 6c-24 47-71 77-122 77-70 0-128-55-132-126l0-13-13 2c-19 5-41 0-56-12-14-13-25-32-25-52 0-19 6-34 17-44 21-20 53-17 53-17l41 0c6 0 10-5 10-11 0-6-2-13-8-13l-41 0c0 0-2 0-4 0z m160-119c-6 0-11 4-11 10l0 218c0 6 5 11 11 11 7 0 11-5 11-11l0-218c0-4-4-10-11-10z m68 149c-2 0-6 0-8 2l-60 62-60-60c-4-4-10-4-15 0-4 5-4 11 0 15l69 68c4 5 10 5 15 0l68-68c4-4 4-10 0-15-4-4-6-4-9-4z"/>
<glyph unicode="&#116;" d="M145 275l-132 0 0 19c0 17 13 32 28 37l44 12 0 20 22 0 0-37-62-17c-7-2-11-8-13-15l111 0 0-19z m94 0l-115 0 0 22 91 0c0 6-4 12-10 14l-64 18 0 34 21 0 0-20 47-12c15-5 26-20 26-37l0-19z m-113 68c-41 0-73 37-73 79 0 43 32 79 73 79 40 0 72-36 72-79 0-42-32-79-72-79z m0 137c-28 0-51-26-51-58 0-32 23-57 51-57 28 0 51 25 51 57 0 32-23 58-51 58z m43-62c-3 0-5 0-9 0-11 2-19 7-26 13-23-17-57-17-74-2l13 17c10-9 38-11 55 6 2 2 6 5 9 2 4 0 6-2 8-6 4-6 13-9 19-9 9-2 15 0 17 3l13-15c-6-7-15-9-25-9z m236-143l-132 0 0 19c0 17 13 32 28 37l47 12 0 20 21 0 0-37-62-17c-6-2-10-8-10-15l108 0z m94 0l-115 0 0 22 92 0c0 6-5 12-11 14l-64 18 0 34 21 0 0-20 47-12c15-5 26-20 26-37l0-19z m-111 68c-40 0-72 37-72 79 0 43 32 79 72 79 41 0 73-36 73-79 0-42-32-79-73-79z m0 137c-27 0-51-26-51-58 0-32 24-57 51-57 28 0 51 25 51 57 0 32-23 58-51 58z m41-62c-2 0-4 0-9 0-10 2-19 7-25 13-24-17-58-15-75-2l13 17c13-9 40-11 57 8 3 3 7 5 9 3 4 0 6-3 8-7 5-8 13-11 18-11 6-2 14 0 17 3l15-15c-7-7-18-9-28-9z m-167-407l-123 0 0 21c0 17 12 32 27 36l45 13 0 21 22 0 0-36-62-19c-7-2-13-9-13-15l102 0 0-21z m103 0l-124 0 0 21 102 0c0 6-6 15-12 15l-60 17 0 36 21 0 0-21 45-13c15-4 28-21 28-36z m-113 72c-41 0-73 36-73 79 0 43 32 79 73 79 40 0 72-36 72-79 0-45-32-79-72-79z m0 135c-28 0-51-26-51-58 0-32 23-58 51-58 27 0 51 26 51 58 0 32-24 58-51 58z m40-62c-2 0-4 0-6 0-11 2-19 6-26 13-23-18-57-15-74-3l12 17c13-8 41-10 58 9 2 2 6 4 9 2 4 0 6-2 8-6 4-9 13-11 17-11 9-2 15 0 17 4l15-15c-8-6-19-10-30-10z m-153 32c-2 0-7 0-9 2l-51 51c-4 4-4 11 0 15 4 4 11 4 15 0l51-51c4-4 4-11 0-15-2-2-4-2-6-2z m226 0c-2 0-7 0-9 2-4 4-4 11 0 15l51 51c5 4 11 4 15 0 5-4 5-11 0-15l-51-51c0-2-2-2-6-2z"/>
</font>
</defs>
</svg>
