<?xml version="1.0" encoding="utf-8"?>
<!-- Generator: Adobe Illustrator 18.1.0, SVG Export Plug-In . SVG Version: 6.00 Build 0)  -->
<!DOCTYPE svg PUBLIC "-//W3C//DTD SVG 1.1//EN" "http://www.w3.org/Graphics/SVG/1.1/DTD/svg11.dtd">
<svg version="1.1" id="Layer_1" xmlns="http://www.w3.org/2000/svg" xmlns:xlink="http://www.w3.org/1999/xlink" x="0px" y="0px"
	 viewBox="0 0 25 17" enable-background="new 0 0 25 17" xml:space="preserve">
<pattern  x="0.5" width="168" height="168" patternUnits="userSpaceOnUse" id="Unnamed_Pattern" viewBox="0 -168 168 168" overflow="visible">
	<g>
		<polygon fill="none" points="0,0 168,0 168,-168 0,-168 		"/>
		<polygon fill="#3498DB" points="168,0 0,0 0,-168 168,-168 		"/>
	</g>
</pattern>
<g>
	<g>
		<pattern  id="SVGID_1_" xlink:href="#Unnamed_Pattern" patternTransform="matrix(1 0 0 1 0 839.958)">
		</pattern>
		<path fill="url(#SVGID_1_)" d="M22.3,17H2.6C1.1,17,0,15.8,0,14.3V2.7C0,1.1,1.1,0,2.7,0h19.6C23.9,0,25,1.1,25,2.7v11.6
			C25,15.8,23.8,17,22.3,17z M2.7,1C1.7,1,1,1.7,1,2.7v11.6c0,1,0.7,1.7,1.6,1.7h19.6c1,0,1.7-0.8,1.7-1.7V2.7C24,1.7,23.3,1,22.3,1
			H2.7z"/>
	</g>
	<g>
		<pattern  id="SVGID_2_" xlink:href="#Unnamed_Pattern" patternTransform="matrix(1 0 0 1 0 839.958)">
		</pattern>
		<path fill="url(#SVGID_2_)" d="M12.9,10.3c-0.1,0-0.2,0-0.3-0.1L0.8,1.5l0.6-0.8l11.6,8.5l10.7-8.5l0.6,0.8l-11,8.7
			C13.2,10.3,13.1,10.3,12.9,10.3z"/>
	</g>
</g>
</svg>
