<?xml version="1.0" encoding="utf-8"?>
<!-- Generator: Adobe Illustrator 18.1.0, SVG Export Plug-In . SVG Version: 6.00 Build 0)  -->
<!DOCTYPE svg PUBLIC "-//W3C//DTD SVG 1.1//EN" "http://www.w3.org/Graphics/SVG/1.1/DTD/svg11.dtd">
<svg version="1.1" id="Layer_1" xmlns="http://www.w3.org/2000/svg" xmlns:xlink="http://www.w3.org/1999/xlink" x="0px" y="0px"
	 viewBox="0 0 53 53" enable-background="new 0 0 53 53" xml:space="preserve">
<g>
	<g>
		<path fill="#C21A17" d="M26,53C11.7,53,0.3,41.6,0,27c-0.1-7.1,2.6-13.8,7.7-18.9c5-5.1,11.7-8,18.8-8.1L27,0
			c14.3,0,25.8,11.4,26,26c0.1,7.1-2.6,13.8-7.7,18.9c-5,5.1-11.7,8-18.8,8.1L26,53z M27,1l-0.5,0C19.7,1.1,13.2,3.9,8.4,8.8
			C3.5,13.7,0.9,20.2,1,26.9C1.2,41,12.2,52,26,52l0.5,0c6.8-0.1,13.3-2.9,18.1-7.8c4.9-4.9,7.5-11.4,7.4-18.2C51.8,12,40.8,1,27,1z
			"/>
	</g>
	<g>
		<rect x="26" y="13.5" fill="#C21A17" width="1" height="16.5"/>
	</g>
	<g>
		<g>
			<path fill="#C21A17" d="M26.5,41.2L26.5,41.2c-1.6,0-2.9-1.3-2.9-2.8c0-0.8,0.3-1.5,0.8-2c0.5-0.5,1.2-0.9,2-0.9
				c1.6,0,2.9,1.3,2.9,2.8c0,0.8-0.3,1.5-0.8,2C28,40.9,27.3,41.2,26.5,41.2L26.5,41.2z M26.5,36.4c-0.5,0-1,0.2-1.3,0.6
				c-0.3,0.4-0.5,0.8-0.5,1.3c0,1,0.9,1.8,1.9,1.8l0,0.5l0-0.5c0.5,0,1-0.2,1.3-0.6c0.3-0.4,0.5-0.8,0.5-1.3
				C28.3,37.3,27.5,36.4,26.5,36.4z"/>
		</g>
	</g>
</g>
</svg>
