<?xml version="1.0" encoding="utf-8"?>
<!-- Generator: Adobe Illustrator 18.1.0, SVG Export Plug-In . SVG Version: 6.00 Build 0)  -->
<!DOCTYPE svg PUBLIC "-//W3C//DTD SVG 1.1//EN" "http://www.w3.org/Graphics/SVG/1.1/DTD/svg11.dtd">
<svg version="1.1" id="Layer_1" xmlns="http://www.w3.org/2000/svg" xmlns:xlink="http://www.w3.org/1999/xlink" x="0px" y="0px"
	 viewBox="0 0 17.6 25" enable-background="new 0 0 17.6 25" xml:space="preserve">
<pattern  x="-0.2" y="0.5" width="168" height="168" patternUnits="userSpaceOnUse" id="Unnamed_Pattern" viewBox="0 -168 168 168" overflow="visible">
	<g>
		<polygon fill="none" points="0,0 168,0 168,-168 0,-168 		"/>
		<polygon fill="#3498DB" points="168,0 0,0 0,-168 168,-168 		"/>
	</g>
</pattern>
<g>
	<g>
		<pattern  id="SVGID_1_" xlink:href="#Unnamed_Pattern" patternTransform="matrix(1 0 0 1 0 839.958)">
		</pattern>
		<circle fill="url(#SVGID_1_)" cx="8.8" cy="15.8" r="0.9"/>
	</g>
	<g>
		<pattern  id="SVGID_2_" xlink:href="#Unnamed_Pattern" patternTransform="matrix(1 0 0 1 0 839.958)">
		</pattern>
		<path fill="url(#SVGID_2_)" d="M8.8,19.9c-0.3,0-0.5-0.2-0.5-0.5v-3.1c0-0.3,0.2-0.5,0.5-0.5s0.5,0.2,0.5,0.5v3.1
			C9.3,19.6,9.1,19.9,8.8,19.9z"/>
	</g>
	<g>
		<pattern  id="SVGID_3_" xlink:href="#Unnamed_Pattern" patternTransform="matrix(1 0 0 1 0 839.958)">
		</pattern>
		<path fill="url(#SVGID_3_)" d="M17.6,25H0V9.9h17.6V25z M1,24h15.6V10.9H1V24z"/>
	</g>
	<g>
		<pattern  id="SVGID_4_" xlink:href="#Unnamed_Pattern" patternTransform="matrix(1 0 0 1 0 839.958)">
		</pattern>
		<path fill="url(#SVGID_4_)" d="M15.1,10.4h-1V6.7C14.1,4,11.9,1,8.8,1S3.5,4,3.5,6.7v3.7h-1V6.7C2.5,3.1,5.4,0,8.8,0
			s6.3,3.1,6.3,6.7V10.4z"/>
	</g>
</g>
</svg>
