<?xml version="1.0" encoding="utf-8"?>
<!-- Generator: Adobe Illustrator 18.1.0, SVG Export Plug-In . SVG Version: 6.00 Build 0)  -->
<!DOCTYPE svg PUBLIC "-//W3C//DTD SVG 1.1//EN" "http://www.w3.org/Graphics/SVG/1.1/DTD/svg11.dtd">
<svg version="1.1" id="Layer_1" xmlns="http://www.w3.org/2000/svg" xmlns:xlink="http://www.w3.org/1999/xlink" x="0px" y="0px"
	 viewBox="0 0 25 26.5" enable-background="new 0 0 25 26.5" xml:space="preserve">
<pattern  x="-0.5" y="1.2" width="168" height="168" patternUnits="userSpaceOnUse" id="Unnamed_Pattern" viewBox="0 -168 168 168" overflow="visible">
	<g>
		<polygon fill="none" points="0,0 168,0 168,-168 0,-168 		"/>
		<polygon fill="#3498DB" points="168,0 0,0 0,-168 168,-168 		"/>
	</g>
</pattern>
<g>
	<g>
		<pattern  id="SVGID_1_" xlink:href="#Unnamed_Pattern" patternTransform="matrix(1 0 0 1 0 1890.958)">
		</pattern>
		<path fill="url(#SVGID_1_)" d="M24.5,26.5h-24C0.3,26.5,0,26.3,0,26v-2c0-1.8,1.1-3.5,2.8-4.1L9,17.7v-2.8c0-0.3,0.2-0.5,0.5-0.5
			s0.5,0.2,0.5,0.5V18c0,0.2-0.1,0.4-0.3,0.5l-6.5,2.4C1.9,21.4,1,22.6,1,24v1.5h23V24c0-1.4-0.9-2.7-2.2-3.1l-6.5-2.4
			C15.2,18.4,15,18.2,15,18v-3.4c0-0.3,0.2-0.5,0.5-0.5s0.5,0.2,0.5,0.5v3.1l6.1,2.3c1.7,0.6,2.9,2.2,2.9,4.1v2
			C25,26.3,24.8,26.5,24.5,26.5z"/>
	</g>
	<g>
		<pattern  id="SVGID_2_" xlink:href="#Unnamed_Pattern" patternTransform="matrix(1 0 0 1 0 1890.958)">
		</pattern>
		<path fill="url(#SVGID_2_)" d="M12.4,16.2c-3.8,0-6.8-3.6-6.8-8.1S8.6,0,12.4,0c3.8,0,6.8,3.6,6.8,8.1S16.1,16.2,12.4,16.2z
			 M12.4,1C9.2,1,6.6,4.2,6.6,8.1c0,3.9,2.6,7.1,5.8,7.1s5.8-3.2,5.8-7.1C18.2,4.2,15.6,1,12.4,1z"/>
	</g>
	<g>
		<pattern  id="SVGID_3_" xlink:href="#Unnamed_Pattern" patternTransform="matrix(1 0 0 1 0 1890.958)">
		</pattern>
		<path fill="url(#SVGID_3_)" d="M17,8.1c-1.5,0-2.7-0.7-3.7-2.1c-1,1.2-3,2-4.7,2c-1,0-1.8-0.2-2.7-0.6C5.7,7.2,5.6,6.9,5.7,6.7
			c0.1-0.2,0.4-0.3,0.7-0.2C7.1,6.8,7.7,7,8.6,7c1.7,0,3.7-1,4.3-2.2c0.1-0.2,0.3-0.3,0.4-0.3c0.2,0,0.4,0.1,0.4,0.3
			C14.9,6.7,16,7.3,17.9,7c0.2,0,0.3,0,0.4,0c0.1,0,0.1,0,0.2,0c0.3,0,0.5,0.2,0.6,0.4c0,0.3-0.2,0.5-0.4,0.6c-0.1,0-0.2,0-0.3,0
			c-0.1,0-0.2,0-0.3,0C17.7,8,17.3,8.1,17,8.1z"/>
	</g>
</g>
</svg>
