<?xml version="1.0" encoding="utf-8"?>
<!-- Generator: Adobe Illustrator 18.1.0, SVG Export Plug-In . SVG Version: 6.00 Build 0)  -->
<!DOCTYPE svg PUBLIC "-//W3C//DTD SVG 1.1//EN" "http://www.w3.org/Graphics/SVG/1.1/DTD/svg11.dtd">
<svg version="1.1" id="Layer_1" xmlns="http://www.w3.org/2000/svg" xmlns:xlink="http://www.w3.org/1999/xlink" x="0px" y="0px"
	 viewBox="0 0 300 64" enable-background="new 0 0 300 64" xml:space="preserve">
<pattern  width="168" height="168" patternUnits="userSpaceOnUse" id="Unnamed_Pattern" viewBox="0 -168 168 168" overflow="visible">
	<g>
		<polygon fill="none" points="0,0 168,0 168,-168 0,-168 		"/>
		<polygon fill="#3498DB" points="168,0 0,0 0,-168 168,-168 		"/>
	</g>
</pattern>
<pattern  id="SVGID_1_" xlink:href="#Unnamed_Pattern" patternTransform="matrix(1 0 0 1 0 839.958)">
</pattern>
<path fill="url(#SVGID_1_)" d="M102.4,45.3H80.2c-0.7,0-1.2-0.6-1.2-1.2v-3.7l13.3-14.9H79.5v-5.8c0-0.3,0.3-0.6,0.6-0.6h21.6
	c0.7,0,1.2,0.6,1.2,1.2v3.5L89.9,38.5h13.7v5.5C103.6,44.7,103,45.3,102.4,45.3z M130.6,34.2h-17.5c0.4,3.8,3.2,5.5,6.7,5.5
	c3.4,0,6.4-1.5,7.9-2.5l2.6,3.5c0.4,0.5,0.3,1.3-0.2,1.7c-1.6,1.3-5.1,3.5-11.5,3.5c-8.1,0-14-5-14-13.7c0-8.7,6.4-13.6,14.2-13.6
	s13.1,5.2,13.1,12.8c0,0.5,0,1.1,0,1.6C131.8,33.7,131.2,34.2,130.6,34.2z M123.9,29.4c-0.1-2.4-1.8-5.3-5.4-5.3
	c-3.5,0-5.3,2.8-5.4,5.3H123.9z M161.2,45.3h-7.3c-0.7,0-1.2-0.6-1.2-1.2V31.6c0-3.5-0.5-6.1-4-6.1c-3.7,0-4.7,3-4.7,6.8v13h-7.3
	c-0.7,0-1.2-0.6-1.2-1.2V20.3c0-0.7,0.6-1.2,1.2-1.2h7.3l-0.1,3.8h0.1c1.4-2.3,3.8-4.3,7.6-4.3c7.6,0,9.6,4.9,9.6,11.2V45.3z
	 M181.9,14.5c0,0-1.6-0.5-3.1-0.5c-2.5,0-3.1,1.4-3.1,3.4v1.7h4.4c0.7,0,1.2,0.6,1.2,1.2v5.2h-5.6v19.8h-7.3c-0.7,0-1.2-0.6-1.2-1.2
	V25.5h-2.1c-0.7,0-1.2-0.6-1.2-1.2v-4c0-0.7,0.6-1.2,1.2-1.2h2.1v-1.4c0-2.9,0.6-5.5,2.1-7.1c1.5-1.7,4-2.7,7.3-2.7
	c2,0,3.7,0.2,4.7,0.4c0.6,0.1,1,0.7,1,1.3L181.9,14.5z M195.8,45.9c-8.3,0-14.6-5.2-14.6-13.6c0-8.5,6.3-13.7,14.6-13.7
	s14.5,5.2,14.5,13.7C210.4,40.7,204.1,45.9,195.8,45.9z M195.8,25.3c-3.8,0-6,2.9-6,6.8c0,3.9,2.2,6.8,6,6.8c3.7,0,6-2.9,6-6.8
	C201.8,28.2,199.6,25.3,195.8,25.3z M230,26.9h-0.4c-0.5-0.3-1.6-0.6-3.1-0.6c-1.9,0-3.3,1.1-3.9,1.9c-0.6,0.9-1.3,2.6-1.3,5.5v11.7
	H214c-0.7,0-1.2-0.6-1.2-1.2V20.3c0-0.7,0.6-1.2,1.2-1.2h7.3l-0.1,3.7h0.1c1.5-2.9,3.7-4.2,6.5-4.2c0.7,0,1.2,0.1,1.6,0.2
	c0.6,0.1,1,0.7,1,1.3L230,26.9z M274.1,45.3h-7.3c-0.7,0-1.2-0.6-1.2-1.2V31c0-2.8-0.5-5.5-3.5-5.5c-3,0-4.3,2.7-4.3,6.3v13.5h-7.3
	c-0.7,0-1.2-0.6-1.2-1.2V31c0-3.2-0.7-5.5-3.5-5.5c-3,0-4.3,2.7-4.3,6.3v13.5h-7.3c-0.7,0-1.2-0.6-1.2-1.2V20.3
	c0-0.7,0.6-1.2,1.2-1.2h7.3l-0.1,3.8l0.1-0.1c1.3-2.2,3.9-4.2,7.2-4.2c3.6,0,6.5,1.2,7.8,4.8c1.9-3.2,4.5-4.8,8.4-4.8
	c6.7,0,9.1,4.6,9.1,10.9V45.3z M295.9,43.6c-1.9,1.5-4.5,2.3-8,2.3c-3.6,0-7.3-1-10.2-3.3c-0.5-0.4-0.6-1.1-0.3-1.6l2.6-4.2
	c2.1,1.8,5.6,3.2,7.8,3.2c2.1,0,3.6-0.5,3.6-2.2c0-1.7-3.8-2.6-4.8-2.9c-1-0.3-2.5-0.7-3.7-1.2c-1.2-0.5-4.5-2.2-4.5-6.9
	c0-5.1,4.5-8.3,10-8.3c4.6,0,7.5,1.4,9.2,2.6c0.5,0.4,0.7,1.1,0.4,1.6l-2.2,4.1c-1.5-1.2-4.5-2.6-6.6-2.6c-2,0-3.1,0.5-3.1,1.9
	c0,1.4,2,2,3.8,2.6c1.8,0.5,2.6,0.8,3.7,1.2c1.2,0.4,2.5,1.1,3.4,2c0.9,0.9,2.1,2.6,2.1,5.3C299,39.9,297.8,42.1,295.9,43.6z
	 M28.9,18.9l-0.8,5.5h-5.5l0.8-5.5H28.9z M47.5,18.9H32.1l-0.8,5.5h15.4L47.5,18.9z M46.2,28.3H22l-0.8,5.5h24.1L46.2,28.3z
	 M19.9,43.2h24.1l0.8-5.5H20.7L19.9,43.2z M9.9,58.1C12.2,42,14.6,25.9,17,9.8c-1.6-0.1-3.2-0.2-4.7-0.3C9.7,26.6,7.2,43.8,4.8,61
	c-0.1,1.2,0.8,2.3,2,2.1c18.2-2.3,36.6-2.2,54.7,0.2c2.2,0.3,4.2-1.2,4.5-3.4c0-0.2,0.1-0.5,0.1-0.7C47.5,56.6,28.6,56.3,9.9,58.1z
	 M50.1,53.8c1.6,0.1,3.2,0.2,4.7,0.3c2.5-17.1,5-34.3,7.4-51.5c0.3-1.3-0.9-2.2-2-2.1C42.1,2.9,23.7,2.8,5.6,0.4
	C3.4,0.1,1.4,1.6,1.1,3.7C1.1,4,1,4.2,1,4.5c18.7,2.5,37.5,2.8,56.2,1C54.9,21.6,52.5,37.7,50.1,53.8z"/>
</svg>
